<mxfile host="Electron" modified="2023-05-20T01:19:48.381Z" agent="Mozilla/5.0 (Windows NT 10.0; Win64; x64) AppleWebKit/537.36 (KHTML, like Gecko) draw.io/21.2.8 Chrome/112.0.5615.165 Electron/24.2.0 Safari/537.36" etag="aXIY_ld7cpk2CTEoBHLB" version="21.2.8" type="device">
  <diagram id="C5RBs43oDa-KdzZeNtuy" name="Page-1">
    <mxGraphModel dx="4172" dy="1685" grid="1" gridSize="10" guides="1" tooltips="1" connect="1" arrows="1" fold="1" page="1" pageScale="1" pageWidth="827" pageHeight="1169" math="0" shadow="0">
      <root>
        <mxCell id="WIyWlLk6GJQsqaUBKTNV-0" />
        <mxCell id="WIyWlLk6GJQsqaUBKTNV-1" parent="WIyWlLk6GJQsqaUBKTNV-0" />
        <mxCell id="XXDRYSPHgyPvjFPOT_Ho-0" style="edgeStyle=orthogonalEdgeStyle;rounded=0;orthogonalLoop=1;jettySize=auto;html=1;entryX=0.5;entryY=0;entryDx=0;entryDy=0;" parent="WIyWlLk6GJQsqaUBKTNV-1" source="t22loXEwvGYVSL7xWseN-0" target="bxnFAB9PuRPpiLN_MdP1-23" edge="1">
          <mxGeometry relative="1" as="geometry" />
        </mxCell>
        <UserObject label="&lt;div style=&quot;&quot;&gt;&lt;font style=&quot;direction: ltr; letter-spacing: 0px; line-height: 120%; opacity: 1; font-size: 11.29px;&quot;&gt;start&lt;/font&gt;&lt;/div&gt;" Function="EN_DIO_Error_T DIO_init(uint8_t pinNumber, EN_DIO_PORT_T portNumber, EN_DIO_DIRECTION_T direction);" tags="Flowchart" id="t22loXEwvGYVSL7xWseN-0">
          <mxCell style="verticalAlign=middle;align=center;overflow=width;vsdxID=30;fillColor=#dae8fc;shape=stencil(tVLREoIgEPwaHnEQxsl3s/9gEpSJwDko7e+DsEkze2l627vdu5uFRaxyHe8FosR5sCcxqMZ3iO0Rpcp0ApQPCLEasUpaEC3Yi2lS3fOojOhsr3HDmObyMtsVcYqS29Qh5FEfklwrM5OXeUa/yjkcAwfr7TDpiyTfXvjkMR+Vw2A998qaBac5tAKHU1hq3i4oNwjRr9ofvayt/+Rk+yX/4iWA159KpXWKxJx/z0Bopfyw+g4=);strokeColor=#6c8ebf;spacingTop=-1;spacingBottom=-1;spacingLeft=-1;spacingRight=-1;points=[[0.5,1,0],[0.5,0,0],[0,0.5,0],[1,0.5,0]];labelBackgroundColor=none;rounded=1;html=1;whiteSpace=wrap;fontFamily=Calibri;" parent="WIyWlLk6GJQsqaUBKTNV-1" vertex="1">
            <mxGeometry x="-3168.5" y="-680" width="101" height="38" as="geometry" />
          </mxCell>
        </UserObject>
        <mxCell id="t22loXEwvGYVSL7xWseN-7" value="notes&lt;br&gt;define RegSize&amp;nbsp;" style="shape=note;whiteSpace=wrap;html=1;backgroundOutline=1;darkOpacity=0.05;fillColor=#e1d5e7;strokeColor=#9673a6;" parent="WIyWlLk6GJQsqaUBKTNV-1" vertex="1">
          <mxGeometry x="-3162" y="-470" width="88" height="110" as="geometry" />
        </mxCell>
        <mxCell id="v6KdufPo2diVo0okK47M-3" style="edgeStyle=orthogonalEdgeStyle;rounded=0;orthogonalLoop=1;jettySize=auto;html=1;" edge="1" parent="WIyWlLk6GJQsqaUBKTNV-1" source="bxnFAB9PuRPpiLN_MdP1-23" target="v6KdufPo2diVo0okK47M-1">
          <mxGeometry relative="1" as="geometry" />
        </mxCell>
        <mxCell id="bxnFAB9PuRPpiLN_MdP1-23" value="&lt;font style=&quot;font-size: 11.29px;&quot;&gt;u8_g_onTime = &lt;br&gt;(u8_a_dutyCycle * RegSize) / 100&lt;br&gt;&lt;/font&gt;" style="rounded=0;whiteSpace=wrap;html=1;fontSize=16;fillColor=#d5e8d4;strokeColor=#82b366;" parent="WIyWlLk6GJQsqaUBKTNV-1" vertex="1">
          <mxGeometry x="-3212" y="-563" width="188" height="43" as="geometry" />
        </mxCell>
        <UserObject label="&lt;div style=&quot;&quot;&gt;&lt;font style=&quot;direction: ltr; letter-spacing: 0px; line-height: 120%; opacity: 1; font-size: 11.29px;&quot;&gt;end&lt;/font&gt;&lt;/div&gt;" Function="EN_DIO_Error_T DIO_init(uint8_t pinNumber, EN_DIO_PORT_T portNumber, EN_DIO_DIRECTION_T direction);" tags="Flowchart" id="XXDRYSPHgyPvjFPOT_Ho-10">
          <mxCell style="verticalAlign=middle;align=center;overflow=width;vsdxID=30;fillColor=#dae8fc;shape=stencil(tVLREoIgEPwaHnEQxsl3s/9gEpSJwDko7e+DsEkze2l627vdu5uFRaxyHe8FosR5sCcxqMZ3iO0Rpcp0ApQPCLEasUpaEC3Yi2lS3fOojOhsr3HDmObyMtsVcYqS29Qh5FEfklwrM5OXeUa/yjkcAwfr7TDpiyTfXvjkMR+Vw2A998qaBac5tAKHU1hq3i4oNwjRr9ofvayt/+Rk+yX/4iWA159KpXWKxJx/z0Bopfyw+g4=);strokeColor=#6c8ebf;spacingTop=-1;spacingBottom=-1;spacingLeft=-1;spacingRight=-1;points=[[0.5,1,0],[0.5,0,0],[0,0.5,0],[1,0.5,0]];labelBackgroundColor=none;rounded=1;html=1;whiteSpace=wrap;fontFamily=Calibri;" parent="WIyWlLk6GJQsqaUBKTNV-1" vertex="1">
            <mxGeometry x="-2640" y="-680" width="101" height="38" as="geometry" />
          </mxCell>
        </UserObject>
        <mxCell id="t6v9Dm_Z3C3Y0JxIhz_D-0" value="&lt;font style=&quot;font-size: 12.5px;&quot;&gt;void TIMER0_setPwm ( u8_a_dutyCycle )&lt;/font&gt;" style="text;html=1;strokeColor=none;fillColor=none;align=center;verticalAlign=middle;whiteSpace=wrap;rounded=0;" parent="WIyWlLk6GJQsqaUBKTNV-1" vertex="1">
          <mxGeometry x="-3018" y="-720" width="312.5" height="30" as="geometry" />
        </mxCell>
        <mxCell id="v6KdufPo2diVo0okK47M-6" style="edgeStyle=orthogonalEdgeStyle;rounded=0;orthogonalLoop=1;jettySize=auto;html=1;" edge="1" parent="WIyWlLk6GJQsqaUBKTNV-1" source="v6KdufPo2diVo0okK47M-1" target="v6KdufPo2diVo0okK47M-4">
          <mxGeometry relative="1" as="geometry" />
        </mxCell>
        <mxCell id="v6KdufPo2diVo0okK47M-1" value="&lt;font style=&quot;font-size: 11.29px;&quot;&gt;u8_g_offTime = &lt;br&gt;((100 - u8_a_dutyCycle) * RegSize) / 100&lt;br&gt;&lt;/font&gt;" style="rounded=0;whiteSpace=wrap;html=1;fontSize=16;fillColor=#d5e8d4;strokeColor=#82b366;" vertex="1" parent="WIyWlLk6GJQsqaUBKTNV-1">
          <mxGeometry x="-2955.75" y="-563" width="225.75" height="43" as="geometry" />
        </mxCell>
        <mxCell id="v6KdufPo2diVo0okK47M-7" style="edgeStyle=orthogonalEdgeStyle;rounded=0;orthogonalLoop=1;jettySize=auto;html=1;" edge="1" parent="WIyWlLk6GJQsqaUBKTNV-1" source="v6KdufPo2diVo0okK47M-4" target="v6KdufPo2diVo0okK47M-5">
          <mxGeometry relative="1" as="geometry" />
        </mxCell>
        <mxCell id="v6KdufPo2diVo0okK47M-4" value="&lt;font style=&quot;font-size: 11.29px;&quot;&gt;set (TCNT0) Reg with&lt;br&gt;RegSize - u8_g_onTime&lt;br&gt;&lt;/font&gt;" style="rounded=0;whiteSpace=wrap;html=1;fontSize=16;fillColor=#d5e8d4;strokeColor=#82b366;" vertex="1" parent="WIyWlLk6GJQsqaUBKTNV-1">
          <mxGeometry x="-2955.75" y="-470" width="225.75" height="43" as="geometry" />
        </mxCell>
        <mxCell id="v6KdufPo2diVo0okK47M-8" style="edgeStyle=orthogonalEdgeStyle;rounded=0;orthogonalLoop=1;jettySize=auto;html=1;" edge="1" parent="WIyWlLk6GJQsqaUBKTNV-1" source="v6KdufPo2diVo0okK47M-5" target="XXDRYSPHgyPvjFPOT_Ho-10">
          <mxGeometry relative="1" as="geometry" />
        </mxCell>
        <mxCell id="v6KdufPo2diVo0okK47M-5" value="&lt;font style=&quot;font-size: 11.29px;&quot;&gt;TIMER0_start (void)&lt;br&gt;&lt;/font&gt;" style="rounded=0;whiteSpace=wrap;html=1;fontSize=16;fillColor=#d5e8d4;strokeColor=#82b366;" vertex="1" parent="WIyWlLk6GJQsqaUBKTNV-1">
          <mxGeometry x="-2955.75" y="-380" width="225.75" height="43" as="geometry" />
        </mxCell>
      </root>
    </mxGraphModel>
  </diagram>
</mxfile>
